<svg xmlns="http://www.w3.org/2000/svg" width="136.5" height="21.59" viewBox="0 0 136.5 21.59"><path d="M-.005 2.4h4.8v18.9h2.7V2.4h4.8V.3h-12.3v2.1zm17.4 9h6.6V9.3h-6.6V2.4h7.5V.3h-10.2v21h10.2v-2.1h-7.5v-7.8zm15.6-2.7l-3.3-8.4h-2.7l4.05 10.2-4.5 10.8h2.7l3.75-9 3.75 9h2.7l-4.5-10.8L38.995.3h-2.7zm18-8.4v9.3h-6.3V.3h-2.7v21h2.7v-9.6h6.3v9.6h2.7V.3h-2.7zM61.03.51a4.713 4.713 0 0 0-2.025 1.74 9.19 9.19 0 0 0-1.275 3.31 31.718 31.718 0 0 0 0 10.47 9.247 9.247 0 0 0 1.275 3.32 4.713 4.713 0 0 0 2.025 1.74 7.482 7.482 0 0 0 5.43 0 4.713 4.713 0 0 0 2.025-1.74 9.247 9.247 0 0 0 1.275-3.32 31.718 31.718 0 0 0 0-10.47 9.19 9.19 0 0 0-1.275-3.31A4.713 4.713 0 0 0 66.46.51a7.482 7.482 0 0 0-5.431 0zm1.305 18.9a3.182 3.182 0 0 1-1.2-1.41 10.479 10.479 0 0 1-.825-2.76 31.449 31.449 0 0 1 0-8.88 10.479 10.479 0 0 1 .825-2.76 3.182 3.182 0 0 1 1.2-1.41 2.744 2.744 0 0 1 2.82 0 3.182 3.182 0 0 1 1.2 1.41 10.479 10.479 0 0 1 .825 2.76 31.449 31.449 0 0 1 0 8.88 10.479 10.479 0 0 1-.825 2.76 3.182 3.182 0 0 1-1.2 1.41 2.744 2.744 0 0 1-2.821 0zm21.81-.81l4.35-12.9h.15l.9 15.6h2.7l-1.2-21h-3.3l-4.89 14.4h-.12L77.845.3h-3.3l-1.2 21h2.7l.9-15.6h.15l4.35 12.9h2.7zm20.4-2.7l1.35 5.4h2.7l-5.1-21h-3.9l-5.1 21h2.7l1.35-5.4h6zm-.45-2.1h-5.1l2.49-10.5h.12zm9.9-.75V1.95h2.1a5.38 5.38 0 0 1 1.755.25 2.559 2.559 0 0 1 1.215.89 4.221 4.221 0 0 1 .7 1.71 16.313 16.313 0 0 1 0 5.4 4.221 4.221 0 0 1-.7 1.71 2.539 2.539 0 0 1-1.215.88 5.365 5.365 0 0 1-1.755.26h-2.1zm0 1.8a14.372 14.372 0 0 0 1.44.21 15.316 15.316 0 0 0 1.56.09 7.644 7.644 0 0 0 2.535-.38 3.859 3.859 0 0 0 1.77-1.26 5.877 5.877 0 0 0 1.05-2.35 16.349 16.349 0 0 0 .345-3.66 14.992 14.992 0 0 0-.36-3.57 5.334 5.334 0 0 0-1.14-2.31 4.334 4.334 0 0 0-2.04-1.25 10.854 10.854 0 0 0-3.06-.37 21.7 21.7 0 0 0-2.5.13 14.165 14.165 0 0 0-2.3.47v20.7h2.7v-6.45zm10.2-12.45h4.8v18.9h2.7V2.4h4.8V.3h-12.3v2.1z" fill="#fff" fill-rule="evenodd"/></svg>